<svg xmlns="http://www.w3.org/2000/svg" viewBox="0 0 98.24 84.79" width="40" height="40">
    <path d="M44.67 20.51C33 19.87 35 9.77 41 8.22c5.56-1.45 8.35 5.85 8.35 5.85C50.39 12.6 56 5.49 58 8.41c1.9 2.71 4.45 4.23 5.19 4.25C75.9.46 80.08-1.14 84.9.57c13.87 4.94 17 21.52 9 30.14-5.69 6.12-21.62 3.57-21.62 3.57l8 6.09c-5.11 7.26-16.89 4.94-16.89 4.94 10.21 22-5.3 39.48-5.3 39.48h-15c0 .12 2.22-11.22-9.69-11.07-10 .13-8.33 11.07-8.33 11.07H9.36c-1.42-3.07-18-24.46-3.34-46 13.81-20.25 35.79-14.1 35.79-14.1zm12.79-3.69a3.14 3.14 0 1 0 3.23 3 3.14 3.14 0 0 0-3.23-3z" fill="#14ab8e">
    </path>
</svg>